<svg width="16" height="16" viewBox="0 0 16 16" fill="none" xmlns="http://www.w3.org/2000/svg">
<path d="M12.7 3.27335C12.0888 2.65597 11.3608 2.16646 10.5584 1.83339C9.75606 1.50031 8.89541 1.33033 8.02667 1.33335C4.38667 1.33335 1.42 4.30002 1.42 7.94002C1.42 9.10669 1.72667 10.24 2.3 11.24L1.36667 14.6667L4.86667 13.7467C5.83334 14.2734 6.92 14.5534 8.02667 14.5534C11.6667 14.5534 14.6333 11.5867 14.6333 7.94669C14.6333 6.18002 13.9467 4.52002 12.7 3.27335ZM8.02667 13.4334C7.04 13.4334 6.07334 13.1667 5.22667 12.6667L5.02667 12.5467L2.94667 13.0934L3.5 11.0667L3.36667 10.86C2.8185 9.98467 2.52743 8.97285 2.52667 7.94002C2.52667 4.91335 4.99333 2.44669 8.02 2.44669C9.48667 2.44669 10.8667 3.02002 11.9 4.06002C12.4117 4.56933 12.8171 5.17513 13.0929 5.8423C13.3687 6.50948 13.5094 7.22476 13.5067 7.94669C13.52 10.9734 11.0533 13.4334 8.02667 13.4334ZM11.04 9.32669C10.8733 9.24669 10.06 8.84669 9.91333 8.78669C9.76 8.73335 9.65334 8.70669 9.54 8.86669C9.42667 9.03335 9.11333 9.40669 9.02 9.51335C8.92667 9.62669 8.82667 9.64002 8.66 9.55335C8.49333 9.47335 7.96 9.29335 7.33333 8.73335C6.84 8.29335 6.51333 7.75335 6.41333 7.58669C6.32 7.42002 6.4 7.33335 6.48667 7.24669C6.56 7.17335 6.65334 7.05335 6.73334 6.96002C6.81334 6.86669 6.84667 6.79335 6.9 6.68669C6.95334 6.57335 6.92667 6.48002 6.88667 6.40002C6.84667 6.32002 6.51333 5.50669 6.38 5.17335C6.24667 4.85335 6.10667 4.89335 6.00667 4.88669H5.68667C5.57333 4.88669 5.4 4.92669 5.24667 5.09335C5.1 5.26002 4.67334 5.66002 4.67334 6.47335C4.67334 7.28669 5.26667 8.07335 5.34667 8.18002C5.42667 8.29335 6.51333 9.96002 8.16667 10.6734C8.56 10.8467 8.86667 10.9467 9.10667 11.02C9.5 11.1467 9.86 11.1267 10.1467 11.0867C10.4667 11.04 11.1267 10.6867 11.26 10.3C11.4 9.91335 11.4 9.58669 11.3533 9.51335C11.3067 9.44002 11.2067 9.40669 11.04 9.32669Z" fill="white"/>
</svg>
