<svg width="16" height="16" viewBox="0 0 16 16" fill="none" xmlns="http://www.w3.org/2000/svg">
<path d="M5.20001 1.33331H10.8C12.9333 1.33331 14.6667 3.06665 14.6667 5.19998V10.8C14.6667 11.8255 14.2593 12.809 13.5342 13.5341C12.809 14.2593 11.8255 14.6666 10.8 14.6666H5.20001C3.06668 14.6666 1.33334 12.9333 1.33334 10.8V5.19998C1.33334 4.17448 1.74072 3.19097 2.46586 2.46583C3.191 1.74069 4.17451 1.33331 5.20001 1.33331ZM5.06668 2.66665C4.43016 2.66665 3.81971 2.9195 3.36962 3.36959C2.91953 3.81968 2.66668 4.43013 2.66668 5.06665V10.9333C2.66668 12.26 3.74001 13.3333 5.06668 13.3333H10.9333C11.5699 13.3333 12.1803 13.0805 12.6304 12.6304C13.0805 12.1803 13.3333 11.5698 13.3333 10.9333V5.06665C13.3333 3.73998 12.26 2.66665 10.9333 2.66665H5.06668ZM11.5 3.66665C11.721 3.66665 11.933 3.75444 12.0893 3.91072C12.2455 4.067 12.3333 4.27897 12.3333 4.49998C12.3333 4.72099 12.2455 4.93295 12.0893 5.08924C11.933 5.24552 11.721 5.33331 11.5 5.33331C11.279 5.33331 11.067 5.24552 10.9108 5.08924C10.7545 4.93295 10.6667 4.72099 10.6667 4.49998C10.6667 4.27897 10.7545 4.067 10.9108 3.91072C11.067 3.75444 11.279 3.66665 11.5 3.66665ZM8.00001 4.66665C8.88406 4.66665 9.73191 5.01784 10.357 5.64296C10.9822 6.26808 11.3333 7.11592 11.3333 7.99998C11.3333 8.88403 10.9822 9.73188 10.357 10.357C9.73191 10.9821 8.88406 11.3333 8.00001 11.3333C7.11595 11.3333 6.26811 10.9821 5.64299 10.357C5.01787 9.73188 4.66668 8.88403 4.66668 7.99998C4.66668 7.11592 5.01787 6.26808 5.64299 5.64296C6.26811 5.01784 7.11595 4.66665 8.00001 4.66665ZM8.00001 5.99998C7.46958 5.99998 6.96087 6.21069 6.5858 6.58577C6.21072 6.96084 6.00001 7.46955 6.00001 7.99998C6.00001 8.53041 6.21072 9.03912 6.5858 9.41419C6.96087 9.78927 7.46958 9.99998 8.00001 9.99998C8.53044 9.99998 9.03915 9.78927 9.41422 9.41419C9.7893 9.03912 10 8.53041 10 7.99998C10 7.46955 9.7893 6.96084 9.41422 6.58577C9.03915 6.21069 8.53044 5.99998 8.00001 5.99998Z" fill="white"/>
</svg>
